HIERARCHY
ROOT root
{
	OFFSET 0.000000 0.000000 0.000000
	CHANNELS 6 Xposition Yposition Zposition Zrotation Yrotation Xrotation
	JOINT lhip
	{
		OFFSET 0.058581 -0.082280 -0.017664
		CHANNELS 3 Zrotation Yrotation Xrotation
		JOINT lknee
		{
			OFFSET 0.043451 -0.386469 0.008037
			CHANNELS 3 Zrotation Yrotation Xrotation
			JOINT lankle
			{
				OFFSET -0.014790 -0.426874 -0.037428
				CHANNELS 3 Zrotation Yrotation Xrotation
				JOINT ltoe
				{
					OFFSET 0.041054 -0.060286 0.122042
					CHANNELS 3 Zrotation Yrotation Xrotation
					End Site
					{
						OFFSET 0.000000 0.000000 0.000000
					}
				}
			}
		}
	}
	JOINT rhip
	{
		OFFSET -0.060310 -0.090513 -0.013543
		CHANNELS 3 Zrotation Yrotation Xrotation
		JOINT rknee
		{
			OFFSET -0.043257 -0.383688 -0.004843
			CHANNELS 3 Zrotation Yrotation Xrotation
			JOINT rankle
			{
				OFFSET 0.019056 -0.420046 -0.034562
				CHANNELS 3 Zrotation Yrotation Xrotation
				JOINT rtoe
				{
					OFFSET -0.034840 -0.062106 0.130323
					CHANNELS 3 Zrotation Yrotation Xrotation
					End Site
					{
						OFFSET 0.000000 0.000000 0.000000
					}
				}
			}
		}
	}
	JOINT lowerback
	{
		OFFSET 0.004439 0.124404 -0.038385
		CHANNELS 3 Zrotation Yrotation Xrotation
		JOINT upperback
		{
			OFFSET 0.004488 0.137956 0.026820
			CHANNELS 3 Zrotation Yrotation Xrotation
			JOINT chest
			{
				OFFSET -0.002265 0.056032 0.002855
				CHANNELS 3 Zrotation Yrotation Xrotation
				JOINT lowerneck
				{
					OFFSET -0.013390 0.211636 -0.033468
					CHANNELS 3 Zrotation Yrotation Xrotation
					JOINT upperneck
					{
						OFFSET 0.010113 0.088937 0.050410
						CHANNELS 3 Zrotation Yrotation Xrotation
						End Site
						{
							OFFSET 0.000000 0.000000 0.000000
						}
					}
				}
				JOINT lclavicle
				{
					OFFSET 0.071702 0.114000 -0.018898
					CHANNELS 3 Zrotation Yrotation Xrotation
					JOINT lshoulder
					{
						OFFSET 0.122921 0.045205 -0.019046
						CHANNELS 3 Zrotation Yrotation Xrotation
						JOINT lelbow
						{
							OFFSET 0.255332 -0.015649 -0.022946
							CHANNELS 3 Zrotation Yrotation Xrotation
							JOINT lwrist
							{
								OFFSET 0.265709 0.012698 -0.007375
								CHANNELS 3 Zrotation Yrotation Xrotation
								End Site
								{
									OFFSET 0.000000 0.000000 0.000000
								}
							}
						}
					}
				}
				JOINT rclavicle
				{
					OFFSET -0.082954 0.112472 -0.023707
					CHANNELS 3 Zrotation Yrotation Xrotation
					JOINT rshoulder
					{
						OFFSET -0.113228 0.046853 -0.008472
						CHANNELS 3 Zrotation Yrotation Xrotation
						JOINT relbow
						{
							OFFSET -0.260127 -0.014369 -0.031269
							CHANNELS 3 Zrotation Yrotation Xrotation
							JOINT rwrist
							{
								OFFSET -0.269108 0.006794 -0.006027
								CHANNELS 3 Zrotation Yrotation Xrotation
								End Site
								{
									OFFSET 0.000000 0.000000 0.000000
								}
							}
						}
					}
				}
			}
		}
	}
}
MOTION
Frames: 16
Frame Time: 0.033333
1.156034 1.172903 1.126814 -86.966459 1.964843 87.091691 0.003380 -0.123790 6.131897 -2.360929 -12.740849 2.466989 5.744829 9.822190 -17.375459 0.000000 -0.000000 0.000000 3.591092 -2.763928 4.137764 3.923656 2.998322 5.596961 1.010419 -4.444120 -13.609596 0.000000 -0.000000 0.000000 -1.912012 2.377517 3.484741 1.722000 -1.853121 2.866728 1.862939 -1.426334 5.065848 2.508567 6.208789 -2.646461 0.750211 2.073846 3.735470 -23.912870 6.759988 3.440098 -62.843738 -3.726274 7.431000 10.688058 -25.991323 6.365895 -2.759158 -2.619942 -10.253042 23.060470 -5.008152 2.668705 62.181063 1.551029 9.738214 -15.620198 23.702099 -4.406903 6.683843 1.001290 -11.367402 
1.156407 1.173086 1.126588 -86.940183 1.940072 87.172804 0.031101 -0.207685 5.927688 -2.510478 -12.683390 2.690144 5.657934 9.855408 -17.203700 0.000000 -0.000000 0.000000 3.535579 -2.538287 4.015610 4.015233 2.948913 5.693606 1.135733 -4.529655 -13.479198 0.000000 -0.000000 0.000000 -1.984440 2.356855 3.322859 1.735306 -1.795828 2.816852 1.903216 -1.414826 5.217288 2.563570 6.082429 -2.602424 0.785912 1.973561 3.773768 -23.729977 6.701252 3.472493 -63.032276 -3.828814 7.625718 10.720201 -26.219185 6.413955 -2.595640 -2.587394 -10.612599 22.931744 -5.092782 2.689888 62.313634 1.550025 9.856890 -15.632083 24.047981 -4.305321 6.714619 0.961710 -11.649648 
1.157100 1.173337 1.126641 -86.814483 1.951581 87.111356 0.059713 -0.327698 5.849715 -2.538492 -12.699550 2.848733 5.656011 9.868251 -17.188371 0.000000 -0.000000 0.000000 3.581243 -2.507254 4.016098 4.004838 3.008446 5.941696 1.169989 -4.602524 -13.250413 0.000000 -0.000000 0.000000 -1.978461 2.332141 3.318393 1.766851 -1.839648 2.893693 1.926352 -1.489446 5.197784 2.579834 6.062314 -2.373810 0.851556 2.006661 3.823347 -23.805807 6.602069 3.640677 -63.045682 -3.933560 7.644263 10.912000 -26.630831 6.234906 -2.465733 -2.579768 -10.613922 22.912784 -4.974162 2.663821 62.352852 1.628425 9.892013 -15.703248 24.020412 -4.332244 6.699130 0.933046 -11.663593 
1.157679 1.173562 1.126644 -86.803891 1.891626 87.079136 -0.009740 -0.341179 5.780638 -2.544033 -12.695040 2.930219 5.595008 9.930616 -17.175347 0.000000 -0.000000 0.000000 3.456847 -2.431996 3.966921 4.105289 2.851037 5.793918 1.183592 -4.552988 -13.623380 0.000000 -0.000000 0.000000 -2.087163 2.365077 3.407259 1.785741 -1.812635 2.716519 1.931400 -1.499718 5.177983 2.584962 5.732541 -1.371974 1.076929 1.760025 3.798474 -23.662372 6.700772 3.566183 -63.170182 -4.037171 7.772056 10.894422 -26.988469 6.295037 -2.312256 -2.588850 -10.761709 22.882404 -5.047188 2.631719 62.439042 1.563577 9.947028 -15.762425 24.184022 -4.119024 6.634283 0.765296 -11.566255 
1.157978 1.173654 1.126681 -86.760227 1.900493 87.076458 -0.005940 -0.416581 5.756955 -2.517707 -12.706871 2.913675 5.590765 9.921368 -17.076915 0.000000 -0.000000 0.000000 3.473115 -2.448086 3.942674 4.119534 2.823082 5.769328 1.179367 -4.538006 -13.499670 0.000000 -0.000000 0.000000 -2.109063 2.379416 3.385241 1.799234 -1.799159 2.707642 1.943520 -1.505783 5.130030 2.615348 5.791591 -1.348752 1.096008 1.841085 3.788424 -23.607506 6.629140 3.591951 -63.245793 -4.053245 7.848442 10.915570 -27.269981 6.324069 -2.334253 -2.600046 -10.853959 22.888758 -5.045961 2.645364 62.445401 1.555260 9.928075 -15.797376 24.286385 -4.188832 6.705945 0.831189 -11.688601 
1.158214 1.173719 1.126835 -86.766639 1.882394 87.027992 -0.044191 -0.449924 5.859905 -2.455642 -12.697327 2.811941 5.588761 9.950205 -17.080477 0.000000 -0.000000 0.000000 3.439767 -2.480517 4.027193 4.160307 3.134193 5.961899 1.218648 -4.610804 -13.260381 0.000000 -0.000000 0.000000 -2.064237 2.379037 3.226898 1.765527 -1.781360 2.831083 1.864462 -1.504847 5.266241 2.630400 6.130037 -2.100160 0.910809 1.944066 3.978146 -23.670482 6.644769 3.486978 -63.067906 -4.260106 7.926405 10.755059 -27.659751 6.490275 -2.226538 -2.725658 -10.831620 23.028953 -4.930805 2.599091 62.366785 1.692330 10.090149 -15.867235 24.235708 -4.296077 6.636292 0.828309 -11.612663 
1.158659 1.173835 1.126758 -86.787884 1.936489 87.099851 0.009314 -0.477233 5.764267 -2.362775 -12.666498 2.678217 5.617356 9.968725 -17.188926 0.000000 -0.000000 0.000000 3.581390 -2.362884 3.939013 4.116522 2.954401 5.613222 1.115133 -4.905001 -13.618772 0.000000 -0.000000 0.000000 -2.052494 2.339439 3.064840 1.769421 -1.725762 2.828462 1.895260 -1.484526 5.366464 2.710241 6.335439 -2.431441 0.816560 1.978570 4.124524 -23.619899 6.693626 3.318750 -63.144890 -4.344830 8.073371 10.792627 -27.941640 6.570926 -2.100961 -2.773106 -10.846239 23.068714 -4.900503 2.587308 62.314150 1.861052 10.147256 -15.940845 24.180227 -4.380272 6.580281 0.754109 -11.583243 
1.158910 1.173919 1.126844 -86.785900 1.937930 86.989446 0.027549 -0.414775 5.784555 -2.447339 -12.724069 2.925817 5.527065 9.904512 -17.091693 0.000000 -0.000000 0.000000 3.559294 -2.424958 4.022090 4.125363 2.965157 5.703053 1.159785 -4.706648 -13.580935 0.000000 -0.000000 0.000000 -2.047234 2.350717 3.205547 1.758456 -1.712537 2.831440 1.877399 -1.444728 5.292357 2.648805 6.285077 -2.201063 0.888691 2.054448 4.119772 -23.526556 6.666101 3.276544 -63.228665 -4.379965 8.082239 10.701304 -28.270743 6.511783 -2.134134 -2.732093 -10.919824 23.060655 -4.950008 2.563238 62.264886 1.793450 10.084970 -15.885093 24.507994 -4.428989 6.653094 0.764236 -11.626984 
1.159232 1.174113 1.126925 -86.763094 1.942688 86.929642 0.044533 -0.479892 5.856132 -2.438504 -12.723616 2.887320 5.517676 9.924784 -17.088650 0.000000 -0.000000 0.000000 3.536573 -2.411971 4.066215 4.191513 3.127337 5.894105 1.152899 -4.714465 -13.154700 0.000000 -0.000000 0.000000 -2.036114 2.352763 3.260287 1.749996 -1.689754 2.820982 1.904904 -1.454990 5.316106 2.640217 6.388149 -2.627987 0.793709 2.102016 4.285950 -23.554420 6.612132 3.213014 -63.281319 -4.398186 8.122669 10.788325 -28.478131 6.529984 -1.944900 -2.747349 -10.936793 23.077404 -4.929084 2.551514 62.174208 1.745874 10.171794 -15.980813 24.671660 -4.419802 6.502656 0.797856 -11.518145 
1.159986 1.174527 1.126828 -86.675352 1.889028 86.946806 -0.036189 -0.593444 5.685443 -2.428120 -12.721022 3.094618 5.510024 9.931583 -17.081261 0.000000 -0.000000 0.000000 3.575106 -2.372370 3.885884 4.062302 2.815533 5.883427 1.191063 -4.791277 -13.522033 0.000000 -0.000000 0.000000 -2.128269 2.367669 3.368054 1.762493 -1.745014 2.751762 1.920372 -1.485067 5.296896 2.692875 6.430886 -2.865581 0.760147 2.020142 4.427974 -23.583157 6.578878 3.106628 -63.229810 -4.447931 8.218907 10.752417 -28.509935 6.454640 -1.898606 -2.793110 -10.835921 23.138352 -4.930052 2.447977 62.137445 1.778304 10.226102 -16.041217 24.761720 -4.580740 6.390080 0.969512 -11.471309 
1.160332 1.174880 1.126887 -86.557778 1.912788 86.956152 0.026169 -0.704080 5.610683 -2.465493 -12.735713 3.173402 5.513741 9.906321 -17.052311 0.000000 -0.000000 0.000000 3.611482 -2.274377 3.857753 4.133934 2.938726 6.127955 1.218941 -4.895261 -13.336442 0.000000 -0.000000 0.000000 -2.133963 2.310205 3.408889 1.790456 -1.755824 2.687477 1.902388 -1.535151 5.325712 2.720138 6.443322 -3.078406 0.700811 1.959956 4.580052 -23.682524 6.574197 3.099196 -63.130077 -4.502084 8.246445 10.772057 -28.549701 6.483518 -1.985845 -2.931442 -10.801846 23.173740 -4.929427 2.347344 62.096821 1.763932 10.327532 -16.025782 24.801372 -4.610104 6.394140 0.946529 -11.529174 
1.160305 1.175074 1.126593 -86.554888 1.907148 86.947484 -0.016250 -0.748956 5.638052 -2.357627 -12.754498 3.072704 5.486707 9.963830 -17.205223 0.000000 -0.000000 0.000000 3.647691 -2.362005 3.802340 4.063734 2.810072 5.980772 1.341421 -4.920779 -13.771693 0.000000 -0.000000 0.000000 -2.127770 2.306330 3.290535 1.797014 -1.757126 2.802359 1.880570 -1.562850 5.402026 2.789726 6.342007 -3.074501 0.731101 1.778308 4.578157 -23.725122 6.575363 3.072253 -63.118152 -4.525435 8.286908 10.808593 -28.520101 6.300546 -1.947727 -2.829616 -10.827484 23.154261 -4.906856 2.269790 62.133738 1.824663 10.289200 -16.053154 24.663602 -4.738304 6.392072 1.139653 -11.601482 
1.160321 1.175382 1.126745 -86.554528 1.907019 86.844012 0.032968 -0.653551 5.711755 -2.420988 -12.768970 3.188624 5.472650 9.912373 -17.153941 0.000000 -0.000000 0.000000 3.636099 -2.444032 3.954343 4.093869 2.838551 5.943573 1.168122 -4.859953 -13.593322 0.000000 -0.000000 0.000000 -2.163254 2.329709 3.406768 1.807018 -1.781297 2.834121 1.903548 -1.536499 5.352953 2.725481 6.324442 -2.931741 0.747621 1.842122 4.561452 -23.726550 6.580443 3.071167 -63.127866 -4.504302 8.234622 10.785839 -28.525091 6.310966 -1.848515 -2.675942 -10.872663 23.224868 -4.934548 2.234732 62.026088 1.825160 10.237322 -15.949866 24.693170 -4.745576 6.355008 1.078389 -11.564271 
1.160307 1.175769 1.126820 -86.508644 1.911655 86.773587 0.056664 -0.688282 5.813178 -2.413669 -12.827908 3.154595 5.451770 9.924387 -17.141015 0.000000 -0.000000 0.000000 3.689787 -2.446825 3.979034 4.075900 3.025096 6.247238 1.144442 -4.894060 -13.265131 0.000000 -0.000000 0.000000 -2.187680 2.372914 3.445883 1.822123 -1.799777 2.903950 1.909281 -1.564725 5.340676 2.737578 6.372588 -2.893499 0.765195 1.882505 4.537106 -23.687145 6.507444 3.137947 -63.117739 -4.487206 8.215647 10.706757 -28.395986 6.470702 -2.020029 -2.780326 -10.896334 23.198751 -4.924377 2.254287 62.029166 1.775463 10.247011 -15.912182 24.696440 -4.754728 6.434019 1.155073 -11.754023 
1.160013 1.175789 1.126650 -86.516215 1.849700 86.703575 -0.054435 -0.644185 5.979018 -2.259513 -12.942135 2.928025 5.470649 9.978035 -17.213900 0.000000 -0.000000 0.000000 3.626777 -2.461262 4.090504 4.072708 2.827917 5.978834 1.210902 -4.963233 -13.747298 0.000000 -0.000000 0.000000 -2.170319 2.350328 3.382397 1.727492 -1.808092 3.069215 1.858377 -1.516325 5.388326 2.786557 6.440420 -2.856155 0.793062 1.861064 4.549382 -23.678635 6.517348 3.136606 -63.069592 -4.401089 8.218741 10.776196 -28.366260 6.427620 -1.986787 -2.668965 -10.818788 23.236491 -4.882146 2.244575 62.063919 1.801764 10.229763 -15.840948 24.666788 -4.624743 6.483661 0.878709 -11.578476 
1.160054 1.176214 1.126670 -86.429312 1.863643 86.666338 0.047875 -0.605213 5.925906 -2.407890 -12.905303 3.183931 5.481196 9.887453 -17.205276 0.000000 -0.000000 0.000000 3.721520 -2.444254 4.063269 3.996033 2.703536 6.146931 1.129306 -4.929809 -13.666680 0.000000 -0.000000 0.000000 -2.212204 2.364764 3.436972 1.785089 -1.800901 3.126823 1.865909 -1.491282 5.367981 2.798946 6.332627 -2.462997 0.902558 1.813316 4.555489 -23.721122 6.488782 3.156258 -63.108987 -4.440779 8.167998 10.913226 -28.143183 6.347227 -2.059339 -2.691447 -10.695189 23.163076 -4.976351 2.188868 62.161073 1.812206 10.193269 -15.785673 24.484008 -4.587031 6.571222 0.916509 -11.619781 
